# xmcd
#
# Track frame offsets:
#	150
#	17711
#	36308
#	48833
#	72050
#	81084
#	90314
#	101660
#	120110
#	133885
#	142023
#	145883
#	154283
#	171308
#	185709
#	202904
#	228097
#	240638
#	253388
#	273097
#	289688
#
# Disc length: 4204 seconds
#
# Revision: 0
# Processed by: cddbd v1.5.1PL0 Copyright (c) Steve Scherf et al.
# Submitted via: dBpowerAMP V4.0
#
DISCID=27106a15
DTITLE=Tom Waits - Tales From The Underground 2
DYEAR=1900
DGENRE=
TTITLE0=Waitin' For Waits
TTITLE1=I'll Never Let Go of Your Hand
TTITLE2=Walk Away
TTITLE3=Sleep Tonight
TTITLE4=I'm Crazy 'Bout My Baby
TTITLE5=The Pontiac
TTITLE6=Take Care Of All My Children
TTITLE7=Serrano
TTITLE8=The Fall Of Troy
TTITLE9=Jesus Blood Never Failed Me Yet
TTITLE10=Martin Goes And Does Where It's At
TTITLE11=Eggs And Sausage
TTITLE12=Date To Church
TTITLE13=Metrotown
TTITLE14=Thousand Big Bangs
TTITLE15=Down There By The Train
TTITLE16=Sweet And Shiny Eyes
TTITLE17=Fumblin' With The Blues
TTITLE18=Drunk On The Moon
TTITLE19=Virginia Avenue
TTITLE20=Tango Till They're Sore
EXTD=
EXTT0=
EXTT1=
EXTT2=
EXTT3=
EXTT4=
EXTT5=
EXTT6=
EXTT7=
EXTT8=
EXTT9=
EXTT10=
EXTT11=
EXTT12=
EXTT13=
EXTT14=
EXTT15=
EXTT16=
EXTT17=
EXTT18=
EXTT19=
EXTT20=
PLAYORDER=
